<svg width="72" height="73" viewBox="0 0 72 73" fill="none" xmlns="http://www.w3.org/2000/svg">
<g filter="url(#filter0_d_2612_53)">
<rect x="4" y="0.5" width="64" height="64" rx="12" fill="#F1F6FF" shape-rendering="crispEdges"/>
<path d="M48.6667 37.1667C49.04 37.1667 49.3333 37.4601 49.3333 37.8334V39.1667C49.3333 41.3801 47.5467 43.1667 45.3333 43.1667C45.3333 40.9667 43.5333 39.1667 41.3333 39.1667C39.1333 39.1667 37.3333 40.9667 37.3333 43.1667H34.6667C34.6667 40.9667 32.8667 39.1667 30.6667 39.1667C28.4667 39.1667 26.6667 40.9667 26.6667 43.1667C24.4533 43.1667 22.6667 41.3801 22.6667 39.1667V36.5001C22.6667 35.7667 23.2667 35.1667 24 35.1667H36.6667C38.5067 35.1667 40 33.6734 40 31.8334V24.5001C40 23.7667 40.6 23.1667 41.3333 23.1667H42.4533C43.4133 23.1667 44.2933 23.6867 44.7733 24.5134L45.6267 26.0067C45.7467 26.2201 45.5867 26.5001 45.3333 26.5001C43.4933 26.5001 42 27.9934 42 29.8334V33.8334C42 35.6734 43.4933 37.1667 45.3333 37.1667H48.6667Z" fill="url(#paint0_linear_2612_53)"/>
<path d="M30.6667 45.8333C32.1394 45.8333 33.3333 44.6394 33.3333 43.1667C33.3333 41.6939 32.1394 40.5 30.6667 40.5C29.1939 40.5 28 41.6939 28 43.1667C28 44.6394 29.1939 45.8333 30.6667 45.8333Z" fill="url(#paint1_linear_2612_53)"/>
<path d="M41.3333 45.8333C42.8061 45.8333 44 44.6394 44 43.1667C44 41.6939 42.8061 40.5 41.3333 40.5C39.8606 40.5 38.6667 41.6939 38.6667 43.1667C38.6667 44.6394 39.8606 45.8333 41.3333 45.8333Z" fill="url(#paint2_linear_2612_53)"/>
<path d="M49.3333 33.2067V35.1667H45.3333C44.6 35.1667 44 34.5667 44 33.8333V29.8333C44 29.1 44.6 28.5 45.3333 28.5H47.0533L48.9867 31.8867C49.2133 32.2867 49.3333 32.74 49.3333 33.2067Z" fill="url(#paint3_linear_2612_53)"/>
<path d="M37.44 19.1667H27.5866C25.2 19.1667 23.2 20.8734 22.76 23.1401H28.5866C29.0933 23.1401 29.4933 23.5534 29.4933 24.0601C29.4933 24.5667 29.0933 24.9667 28.5866 24.9667H22.6666V26.8067H26.1333C26.64 26.8067 27.0533 27.2201 27.0533 27.7267C27.0533 28.2334 26.64 28.6334 26.1333 28.6334H22.6666V30.4734H23.6933C24.2 30.4734 24.6133 30.8867 24.6133 31.3934C24.6133 31.9001 24.2 32.3001 23.6933 32.3001H22.6666V32.6067C22.6666 33.3401 23.2666 33.9401 24 33.9401H36.2C37.56 33.9401 38.6666 32.8334 38.6666 31.4734V20.3934C38.6666 19.7134 38.12 19.1667 37.44 19.1667Z" fill="url(#paint4_linear_2612_53)"/>
<path d="M22.76 23.1401H22.56H21.2533C20.7466 23.1401 20.3333 23.5535 20.3333 24.0601C20.3333 24.5668 20.7466 24.9668 21.2533 24.9668H22.4666H22.6666V24.0868C22.6666 23.7668 22.7066 23.4468 22.76 23.1401Z" fill="url(#paint5_linear_2612_53)"/>
<path d="M22.4666 26.8069H21.2533C20.7466 26.8069 20.3333 27.2202 20.3333 27.7269C20.3333 28.2336 20.7466 28.6336 21.2533 28.6336H22.4666H22.6666V26.8069H22.4666Z" fill="url(#paint6_linear_2612_53)"/>
<path d="M22.4666 30.4734H21.2533C20.7466 30.4734 20.3333 30.8867 20.3333 31.3934C20.3333 31.9001 20.7466 32.3001 21.2533 32.3001H22.4666H22.6666V30.4734H22.4666Z" fill="url(#paint7_linear_2612_53)"/>
</g>
<defs>
<filter id="filter0_d_2612_53" x="0" y="0.5" width="72" height="72" filterUnits="userSpaceOnUse" color-interpolation-filters="sRGB">
<feFlood flood-opacity="0" result="BackgroundImageFix"/>
<feColorMatrix in="SourceAlpha" type="matrix" values="0 0 0 0 0 0 0 0 0 0 0 0 0 0 0 0 0 0 127 0" result="hardAlpha"/>
<feOffset dy="4"/>
<feGaussianBlur stdDeviation="2"/>
<feComposite in2="hardAlpha" operator="out"/>
<feColorMatrix type="matrix" values="0 0 0 0 0 0 0 0 0 0 0 0 0 0 0 0 0 0 0.25 0"/>
<feBlend mode="normal" in2="BackgroundImageFix" result="effect1_dropShadow_2612_53"/>
<feBlend mode="normal" in="SourceGraphic" in2="effect1_dropShadow_2612_53" result="shape"/>
</filter>
<linearGradient id="paint0_linear_2612_53" x1="48.8525" y1="23.1667" x2="19.9007" y2="37.6298" gradientUnits="userSpaceOnUse">
<stop stop-color="#2878FF"/>
<stop offset="1" stop-color="#2C65C8"/>
</linearGradient>
<linearGradient id="paint1_linear_2612_53" x1="33.2372" y1="40.5" x2="26.8924" y2="42.8772" gradientUnits="userSpaceOnUse">
<stop stop-color="#2878FF"/>
<stop offset="1" stop-color="#2C65C8"/>
</linearGradient>
<linearGradient id="paint2_linear_2612_53" x1="43.9038" y1="40.5" x2="37.5591" y2="42.8772" gradientUnits="userSpaceOnUse">
<stop stop-color="#2878FF"/>
<stop offset="1" stop-color="#2C65C8"/>
</linearGradient>
<linearGradient id="paint3_linear_2612_53" x1="49.2372" y1="28.5" x2="42.5982" y2="30.4899" gradientUnits="userSpaceOnUse">
<stop stop-color="#2878FF"/>
<stop offset="1" stop-color="#2C65C8"/>
</linearGradient>
<linearGradient id="paint4_linear_2612_53" x1="38.3781" y1="19.1667" x2="19.7407" y2="26.7294" gradientUnits="userSpaceOnUse">
<stop stop-color="#2878FF"/>
<stop offset="1" stop-color="#2C65C8"/>
</linearGradient>
<linearGradient id="paint5_linear_2612_53" x1="22.7162" y1="23.1401" x2="20.0778" y2="24.4534" gradientUnits="userSpaceOnUse">
<stop stop-color="#2878FF"/>
<stop offset="1" stop-color="#2C65C8"/>
</linearGradient>
<linearGradient id="paint6_linear_2612_53" x1="22.6246" y1="26.8069" x2="20.049" y2="28.0395" gradientUnits="userSpaceOnUse">
<stop stop-color="#2878FF"/>
<stop offset="1" stop-color="#2C65C8"/>
</linearGradient>
<linearGradient id="paint7_linear_2612_53" x1="22.6246" y1="30.4734" x2="20.049" y2="31.706" gradientUnits="userSpaceOnUse">
<stop stop-color="#2878FF"/>
<stop offset="1" stop-color="#2C65C8"/>
</linearGradient>
</defs>
</svg>
