<svg width="137" height="35" viewBox="0 0 137 35" fill="none" xmlns="http://www.w3.org/2000/svg">
<rect y="19.9795" width="9.4988" height="9.4988" rx="2.19203" transform="rotate(-45 0 19.9795)" fill="white"/>
<rect x="8.78333" y="28.0168" width="9.4988" height="9.4988" rx="2.19203" transform="rotate(-45 8.78333 28.0168)" fill="white"/>
<rect x="6.21515" y="9.55127" width="13.1307" height="13.1307" rx="2.46201" transform="rotate(-45 6.21515 9.55127)" fill="white"/>
<rect x="17.5667" y="19.9795" width="9.4988" height="9.4988" rx="2.19203" transform="rotate(-45 17.5667 19.9795)" fill="white"/>
<path d="M42.152 23.5V11.58H46.6C47.4107 11.58 48.1253 11.7293 48.744 12.028C49.3733 12.316 49.864 12.7427 50.216 13.308C50.568 13.8627 50.744 14.54 50.744 15.34C50.744 16.1293 50.5627 16.8067 50.2 17.372C49.848 17.9267 49.3627 18.3533 48.744 18.652C48.1253 18.9507 47.4107 19.1 46.6 19.1H44.328V23.5H42.152ZM44.328 17.18H46.632C47.0267 17.18 47.368 17.1053 47.656 16.956C47.944 16.796 48.168 16.5773 48.328 16.3C48.488 16.0227 48.568 15.7027 48.568 15.34C48.568 14.9667 48.488 14.6467 48.328 14.38C48.168 14.1027 47.944 13.8893 47.656 13.74C47.368 13.58 47.0267 13.5 46.632 13.5H44.328V17.18ZM52.527 23.5V11.58H54.703V21.58H59.807V23.5H52.527ZM60.2385 23.5L64.3505 11.58H67.1665L71.2785 23.5H68.9105L68.0625 20.94H63.4545L62.5905 23.5H60.2385ZM64.0785 19.02H67.4385L65.4545 13.084H66.0625L64.0785 19.02ZM73.9203 23.5V13.5H70.8323V11.58H79.1523V13.5H76.1123V23.5H73.9203ZM80.4801 23.5V11.58H88.4001V13.5H82.6561V16.556H88.0801V18.476H82.6561V21.58H88.4001V23.5H80.4801ZM89.9958 23.5V11.58H97.9478V13.5H92.1718V16.796H97.2278V18.716H92.1718V23.5H89.9958ZM105.087 23.692C104.212 23.692 103.396 23.5373 102.639 23.228C101.881 22.9187 101.22 22.4867 100.655 21.932C100.089 21.3773 99.6465 20.7267 99.3265 19.98C99.0172 19.2227 98.8625 18.4067 98.8625 17.532C98.8625 16.6467 99.0172 15.8307 99.3265 15.084C99.6358 14.3373 100.073 13.6867 100.639 13.132C101.204 12.5773 101.865 12.1507 102.623 11.852C103.38 11.5427 104.201 11.388 105.087 11.388C105.972 11.388 106.793 11.5427 107.551 11.852C108.308 12.1613 108.969 12.5933 109.535 13.148C110.1 13.692 110.537 14.3373 110.847 15.084C111.167 15.8307 111.327 16.6467 111.327 17.532C111.327 18.4067 111.167 19.2227 110.847 19.98C110.527 20.7267 110.084 21.3773 109.519 21.932C108.953 22.4867 108.292 22.9187 107.535 23.228C106.788 23.5373 105.972 23.692 105.087 23.692ZM105.087 21.708C105.673 21.708 106.212 21.6067 106.703 21.404C107.193 21.1907 107.62 20.8973 107.983 20.524C108.356 20.1507 108.639 19.708 108.831 19.196C109.033 18.684 109.135 18.1293 109.135 17.532C109.135 16.9347 109.033 16.3853 108.831 15.884C108.639 15.372 108.356 14.9293 107.983 14.556C107.62 14.172 107.193 13.8787 106.703 13.676C106.212 13.4733 105.673 13.372 105.087 13.372C104.511 13.372 103.977 13.4733 103.487 13.676C102.996 13.8787 102.564 14.172 102.191 14.556C101.828 14.9293 101.545 15.372 101.343 15.884C101.14 16.3853 101.039 16.9347 101.039 17.532C101.039 18.1293 101.14 18.684 101.343 19.196C101.545 19.708 101.828 20.1507 102.191 20.524C102.564 20.8973 102.996 21.1907 103.487 21.404C103.977 21.6067 104.511 21.708 105.087 21.708ZM113.261 23.5V11.58H117.693C118.504 11.58 119.219 11.7293 119.837 12.028C120.467 12.316 120.957 12.7427 121.309 13.308C121.661 13.8627 121.837 14.54 121.837 15.34C121.837 16.1613 121.64 16.86 121.245 17.436C120.861 18.012 120.339 18.4387 119.677 18.716L122.413 23.5H119.949L117.021 18.268L118.429 19.1H115.437V23.5H113.261ZM115.437 17.18H117.725C118.12 17.18 118.461 17.1053 118.749 16.956C119.037 16.796 119.261 16.5773 119.421 16.3C119.581 16.0227 119.661 15.7027 119.661 15.34C119.661 14.9667 119.581 14.6467 119.421 14.38C119.261 14.1027 119.037 13.8893 118.749 13.74C118.461 13.58 118.12 13.5 117.725 13.5H115.437V17.18ZM123.84 23.5V11.58H125.92L130.384 17.644H129.392L133.76 11.58H135.84V23.5H133.648V14.06L134.496 14.268L129.968 20.3H129.712L125.296 14.268L126.016 14.06V23.5H123.84Z" fill="white"/>
</svg>
