<svg width="200" height="32" viewBox="0 0 200 32" fill="none" xmlns="http://www.w3.org/2000/svg">
<g clip-path="url(#clip0_2645_172)">
<path d="M199.984 16.849C199.986 19.0615 199.965 21.2741 200 23.4866C200.009 24.0377 199.802 24.3066 198.969 24.2703C198.245 24.239 197.519 24.2653 196.793 24.2571C196.411 24.2538 196.034 24.201 195.988 23.8677C195.913 23.343 195.585 23.541 195.21 23.6994C191.375 25.3196 186.782 24.0806 185.451 20.9886C184.606 19.0252 184.709 17.0651 186.371 15.2783C188.214 13.2951 191.884 12.6302 194.815 13.7736C195.615 14.0854 195.785 13.9864 195.762 13.3825C195.725 12.4058 195.75 11.4274 195.755 10.449C195.759 9.37326 195.785 9.35511 197.249 9.35181C197.829 9.35016 198.413 9.37821 198.99 9.34356C199.76 9.29737 200.068 9.5267 199.984 10.0563C199.979 10.0811 199.984 10.1075 199.984 10.1339C199.981 12.3728 199.981 14.6117 199.984 16.849ZM195.818 18.6359C195.799 17.9115 195.531 17.0767 194.463 16.4794C193.406 15.8888 192.01 15.8327 190.893 16.3276C189.582 16.91 188.977 18.3141 189.426 19.7347C189.748 20.7527 190.746 21.4704 192.003 21.5892C192.038 21.5925 192.075 21.5941 192.112 21.5974C194.363 21.7608 195.722 20.7395 195.818 18.6359Z" fill="#364050"/>
<path d="M104.54 14.643C106.306 13.564 108.217 13.1713 110.386 13.5689C111.431 13.7603 112.358 14.1134 113.007 14.7404C113.368 15.0868 113.561 15.1512 114.054 14.7915C115.9 13.4419 118.167 13.107 120.655 13.6729C122.952 14.1959 123.888 15.4927 124.132 17.0849C124.465 19.2661 124.218 21.4572 124.274 23.6433C124.29 24.2422 123.709 24.3049 123.09 24.2587C122.489 24.2142 121.614 24.5227 121.537 23.6961C121.386 22.0759 121.491 20.454 121.472 18.8321C121.467 18.3702 121.465 17.9032 121.384 17.4462C121.174 16.2467 120.308 15.5917 118.744 15.3937C117.252 15.2056 115.7 15.7468 114.999 16.7087C114.434 17.4875 114.352 18.3405 114.334 19.1902C114.303 20.5794 114.275 21.9719 114.343 23.3611C114.38 24.1036 113.936 24.2818 112.988 24.2801C112.069 24.2785 111.566 24.1515 111.597 23.3859C111.662 21.8432 111.62 20.2973 111.613 18.7513C111.611 18.3652 111.615 17.9775 111.557 17.5947C111.355 16.288 110.314 15.4993 108.643 15.3607C107.063 15.2304 105.471 15.9514 104.891 17.0684C104.614 17.6046 104.489 18.1606 104.493 18.7331C104.503 20.2527 104.454 21.7723 104.512 23.2902C104.54 24.0195 104.209 24.2917 103.15 24.2851C102.138 24.2785 101.738 24.0739 101.749 23.3149C101.798 20.4062 101.765 17.4957 101.77 14.5869C101.77 14.0804 101.612 13.5293 102.783 13.5244C104.26 13.5194 104.335 13.5244 104.54 14.643Z" fill="#364050"/>
<path d="M168.449 18.7975C168.465 15.4928 171.598 13.2027 176.074 13.2241C180.533 13.2456 183.633 15.5687 183.612 18.8718C183.592 22.1287 180.375 24.4501 175.923 24.4237C171.556 24.3973 168.433 22.0462 168.449 18.7975ZM172.711 18.814C172.69 19.2067 172.801 19.5829 172.969 19.9508C173.451 21.0084 174.64 21.6304 176.12 21.609C177.61 21.5892 178.695 20.9391 179.109 19.8254C179.456 18.8949 179.379 17.9874 178.736 17.1377C177.81 15.9135 175.611 15.6198 174.093 16.4893C173.041 17.0915 172.755 17.9165 172.711 18.814Z" fill="#364050"/>
<path d="M167.074 18.847C167.078 22.1105 163.98 24.4138 159.577 24.4237C155.136 24.4336 151.903 22.0396 151.917 18.753C151.931 15.5587 155.148 13.2274 159.542 13.2274C164.011 13.2258 167.069 15.5076 167.074 18.847ZM162.814 18.8536C162.826 18.2266 162.67 17.6261 162.223 17.0783C161.064 15.6627 158.278 15.6165 156.966 16.9876C155.874 18.1293 156.023 19.9211 157.294 20.9358C158.087 21.571 159.53 21.8069 160.687 21.4902C162.004 21.1321 162.805 20.1389 162.814 18.8536Z" fill="#364050"/>
<path d="M148.079 20.223C148.077 21.3021 148.049 22.3828 148.089 23.4618C148.112 24.069 147.753 24.3016 146.925 24.2686C146.273 24.2439 145.617 24.2406 144.968 24.2686C144.109 24.3049 143.825 24.031 143.832 23.4437C143.86 21.3615 143.82 19.2776 143.853 17.1954C143.862 16.5652 143.743 16.1263 142.638 16.2104C141.998 16.2599 141.721 15.9861 141.718 15.5505C141.718 15.2156 141.739 14.8806 141.704 14.5473C141.639 13.8923 141.928 13.498 142.975 13.564C143.746 13.6135 143.82 13.2456 143.867 12.8199C144.225 9.60421 147.777 8.73636 151.231 9.38147C152.138 9.55141 152.567 9.86654 152.108 10.543C151.999 10.7047 151.931 10.8812 151.864 11.0545C151.605 11.7293 151.373 12.3266 150.009 11.919C149.383 11.7326 148.633 11.8943 148.261 12.4305C147.753 13.1581 148.077 13.5607 149.213 13.564C151.652 13.5706 151.482 13.4122 151.536 15.2733C151.557 16.0323 151.138 16.2467 150.125 16.2319C147.902 16.2005 148.082 16.0603 148.077 17.6723C148.079 18.5269 148.082 19.375 148.079 20.223Z" fill="#364050"/>
<path d="M71.3247 14.6479C71.625 14.506 71.7693 14.44 71.9066 14.3707C73.9594 13.3198 76.1775 13.1036 78.4909 13.8296C80.6974 14.5225 81.4119 15.9514 81.5213 17.4924C81.6633 19.5201 81.5678 21.5561 81.5725 23.5888C81.5748 24.488 80.6136 24.2174 79.92 24.2669C79.138 24.323 78.8494 24.1003 78.8447 23.5145C78.8261 21.5611 79.0449 19.6043 78.719 17.6557C78.4723 16.1807 77.5786 15.5356 75.6701 15.3772C73.9338 15.232 72.2627 15.9794 71.6599 17.1756C71.4015 17.6904 71.3224 18.2249 71.3247 18.7694C71.3317 20.3137 71.2828 21.858 71.3433 23.3991C71.3736 24.1712 70.8383 24.2867 69.9329 24.2801C69.0741 24.2735 68.5923 24.158 68.597 23.4304C68.6319 19.0053 68.6319 14.5803 68.597 10.1552C68.59 9.39792 69.1416 9.34347 69.9655 9.34182C70.7987 9.34017 71.3643 9.41607 71.3387 10.1618C71.2898 11.6187 71.3247 13.0756 71.3247 14.6479Z" fill="#364050"/>
<path d="M135.337 19.6406C133.921 19.6406 132.506 19.634 131.091 19.6439C130.023 19.6505 129.89 19.8122 130.33 20.52C131.561 22.4982 135.157 23.14 137.566 21.7789C138.185 21.4291 138.586 21.2014 139.221 21.7838C139.826 22.3398 140.064 22.7375 139.137 23.2456C136.861 24.4946 134.373 24.7141 131.745 24.0162C128.98 23.2803 127.619 21.7244 127.305 19.7115C126.981 17.631 127.626 15.7336 130.084 14.3939C133.542 12.508 138.362 13.4501 140.078 16.2863C140.541 17.0535 140.736 17.8603 140.848 18.682C140.941 19.3469 140.634 19.6884 139.58 19.6538C138.171 19.6043 136.752 19.6406 135.337 19.6406ZM134.11 18.0385V18.0369C135.199 18.0369 136.286 18.0303 137.375 18.0385C137.981 18.0435 138.109 17.8587 137.988 17.4561C137.617 16.2434 135.944 15.2997 134.096 15.2931C132.246 15.2865 130.579 16.2104 130.174 17.4281C130.025 17.8768 130.2 18.0501 130.845 18.0418C131.934 18.0286 133.021 18.0385 134.11 18.0385Z" fill="#364050"/>
<path d="M98.7723 18.7596C98.77 22.8761 93.7357 25.4351 88.8946 23.9865C85.9364 23.1022 84.1909 20.7461 84.5912 18.1838C84.9799 15.7056 87.17 13.9452 90.4145 13.5079C94.2664 12.9882 97.7645 14.7355 98.5512 17.5849C98.6769 18.0386 98.7258 18.5022 98.7723 18.7596ZM95.9282 18.7811C95.9189 18.6458 95.9398 18.3587 95.8677 18.0831C95.5418 16.8342 94.6667 15.8855 92.8839 15.4746C91.2267 15.0935 89.7791 15.4004 88.6177 16.2781C86.9396 17.5486 86.8698 20.0036 88.4059 21.3665C89.9397 22.7276 92.686 22.8514 94.4689 21.6569C95.586 20.9094 95.9305 19.9706 95.9282 18.7811Z" fill="#364050"/>
<path d="M35.1515 10.6618C34.2181 10.67 33.2802 10.5875 32.4819 11.0115C31.765 11.391 31.7697 11.5082 32.4214 11.9355C35.461 13.9286 38.5239 15.9052 41.5263 17.9263C43.8352 19.4805 46.3907 20.812 48.8625 22.2243C50.5918 23.2126 52.1977 24.2834 52.9983 25.8145C53.0239 25.864 53.0612 25.9119 53.0798 25.9614C53.2683 26.4596 53.4615 26.9843 52.9308 27.4182C52.3676 27.8786 51.6088 27.7317 50.9153 27.5882C48.8764 27.1691 47.3031 26.2501 46.0602 25.0836C41.5333 20.8367 36.2896 17.042 31.2041 13.1482C30.4267 12.5525 30.4035 12.5591 29.6401 13.13C26.1791 15.722 22.6763 18.286 19.2806 20.9209C17.4093 22.3728 15.7312 23.9468 13.9484 25.4565C13.0733 26.1973 12.1819 26.9299 11.1671 27.5799C10.413 28.0617 9.57512 28.1821 8.61854 27.9198C7.64567 27.6509 7.22905 27.118 7.1057 26.4217C7.01726 25.9201 7.34543 25.5373 7.776 25.1843C9.04912 24.1399 10.548 23.2671 12.0818 22.4372C15.9174 20.3616 19.3458 17.9709 22.8369 15.6247C24.6896 14.379 26.5702 13.1531 28.4344 11.9157C28.623 11.7903 28.9511 11.683 28.8068 11.4537C28.6788 11.2475 28.3507 11.2673 28.0807 11.2805C27.7851 11.2937 27.4895 11.3349 27.1939 11.3514C25.8207 11.4273 24.7594 10.9901 23.8261 10.3268C21.4754 8.65876 19.3201 6.86531 17.1882 5.05866C16.2828 4.2898 15.3891 3.51269 14.5093 2.72898C14.3441 2.58214 13.9437 2.40065 14.2417 2.20266C14.5605 1.99147 14.7537 2.30826 14.9352 2.4386C17.144 4.03076 19.3388 5.63283 21.5382 7.22994C21.7989 7.41803 22.0665 7.60117 22.3435 7.77771C22.5018 7.8767 22.6926 8.04499 22.9114 7.89155C23.1092 7.75131 22.8462 7.64407 22.7415 7.54012C22.6112 7.41308 22.4599 7.29428 22.3086 7.17879C20.1161 5.50248 17.9167 3.83112 15.7336 2.14987C15.4868 1.95848 14.9283 1.71264 15.2611 1.48C15.6986 1.17312 15.9593 1.64169 16.22 1.82318C18.6289 3.49619 21.0192 5.1824 23.4165 6.86531C23.5212 6.93955 23.6306 7.01215 23.747 7.07815C23.847 7.13589 23.9681 7.17384 24.0844 7.11114C24.238 7.02865 24.2031 6.9214 24.1031 6.83396C23.9029 6.65577 23.7004 6.47758 23.4723 6.31589C21.2193 4.70558 18.9594 3.09856 16.7018 1.49155C16.5784 1.40411 16.4527 1.31996 16.334 1.23087C16.1618 1.10217 15.936 0.96193 16.199 0.78869C16.4201 0.643498 16.611 0.78704 16.7762 0.892634C17.6374 1.4503 18.4962 2.00797 19.3527 2.56894C21.0471 3.67768 22.7345 4.79137 24.4359 5.89681C24.6803 6.0552 25.0317 6.38683 25.2668 6.21029C25.5577 5.99086 25.0503 5.76152 24.8222 5.60148C22.4762 3.95322 20.1115 2.32311 17.7514 0.689695C17.6444 0.615449 17.5257 0.551103 17.4256 0.473557C17.2813 0.364663 17.002 0.260718 17.2068 0.0874779C17.4372 -0.107211 17.6537 0.067679 17.8376 0.174923C19.4295 1.09887 21.0378 2.01127 22.6042 2.95667C24.7198 4.23205 26.8052 5.52888 28.7649 6.92965C29.8961 7.73811 30.3383 8.64556 30.059 9.751C29.9985 9.99189 29.8961 10.2938 30.2824 10.4126C30.72 10.5463 30.9248 10.2328 31.1436 10.0364C31.4275 9.784 31.5858 9.48866 31.5928 9.15868C31.5974 8.94749 31.6254 8.73466 31.5974 8.52677C31.3856 6.90986 32.2794 5.61468 33.89 4.52409C35.6239 3.34935 37.5138 2.33631 39.7342 1.66149C40.7978 1.33811 41.8941 1.14672 43.0625 1.20777C44.1424 1.26551 44.7545 1.63509 44.9384 2.39075C45.1991 3.46979 44.6684 4.44654 44.0307 5.38369C42.8972 7.05175 41.2959 8.46902 39.3176 9.68335C38.1027 10.4291 36.7108 10.7343 35.1515 10.6618Z" fill="#364050"/>
<path d="M11.2183 28.4378C14.9865 28.4378 18.7546 28.4164 22.5204 28.4461C24.8013 28.4642 27.0706 28.6738 29.3329 28.8718C32.696 29.1655 36.0685 29.1209 39.4363 29.0351C42.5318 28.9559 45.6227 28.7959 48.7112 28.6309C51.553 28.4791 54.3855 28.2448 57.2413 28.225C57.9884 28.2201 58.7309 28.2481 59.4477 28.4065C60.6999 28.6837 61.2631 29.3337 61.1188 30.322C61.0071 31.0827 60.2204 31.5892 58.9636 31.6403C57.0481 31.7179 55.1512 31.5331 53.2544 31.3879C47.1611 30.9243 41.0655 30.5431 34.928 30.6999C32.4842 30.7626 30.1265 31.1899 27.7572 31.5661C26.1559 31.8218 24.5197 31.9027 22.8858 31.9505C17.0928 32.1204 11.3417 31.8482 5.63709 31.1091C4.27088 30.9325 2.91398 30.718 1.64319 30.2956C1.35226 30.1983 1.06133 30.096 0.798326 29.9673C0.314217 29.7297 -0.137308 29.4459 0.0395777 28.9741C0.214136 28.5038 0.833238 28.5616 1.33364 28.5335C4.62232 28.3455 7.92032 28.3405 11.2183 28.4378Z" fill="#364050"/>
<path d="M29.9961 20.949C29.9915 22.1254 30.1288 22.0379 28.4926 22.033C26.6586 22.028 26.8285 22.1847 26.8262 20.8566C26.8238 19.7363 26.6795 19.7924 28.2878 19.7957C28.3134 19.7957 28.3367 19.7957 28.3623 19.7957C30.18 19.8006 29.9845 19.6901 29.9961 20.949Z" fill="#364050"/>
<path d="M32.3958 22.0346C30.7293 22.028 30.8457 22.1517 30.848 20.9159C30.8503 19.6917 30.6827 19.7956 32.4656 19.794C34.1902 19.7923 34.0063 19.7098 34.0087 20.9126C34.0087 22.1715 34.1483 22.0247 32.3958 22.0346Z" fill="#364050"/>
<path d="M32.4004 24.7965C30.7549 24.785 30.8434 24.9417 30.848 23.6928C30.8527 22.518 30.6618 22.551 32.4516 22.5543C34.011 22.5576 34.011 22.556 34.011 23.668C34.0087 24.7965 34.0087 24.7965 32.4004 24.7965Z" fill="#364050"/>
<path d="M28.3367 24.7967C26.7308 24.7736 26.8076 25.0244 26.8309 23.7457C26.8518 22.5709 26.4352 22.5561 28.495 22.5544C29.9962 22.5528 29.9985 22.5544 29.9939 23.6087C29.9892 24.9518 30.1614 24.7818 28.3367 24.7967Z" fill="#364050"/>
</g>
<defs>
<clipPath id="clip0_2645_172">
<rect width="200" height="32" fill="white"/>
</clipPath>
</defs>
</svg>
