<svg width="1440" height="880" viewBox="0 0 1440 880" fill="none" xmlns="http://www.w3.org/2000/svg">
<g clip-path="url(#clip0_416_1013)">
<rect width="1440" height="880" fill="white"/>
<path d="M284.817 398.253V296.995C284.817 250.385 294.863 211.81 314.953 181.272C335.848 150.734 365.984 130.644 405.362 121V163.191C381.253 169.62 363.975 181.674 353.528 199.354C343.08 216.23 337.053 238.33 335.446 265.654H381.253V398.253H284.817ZM144 398.253V296.995C144 250.385 154.045 211.81 174.136 181.272C195.031 150.734 225.167 130.644 264.545 121V163.191C240.436 169.62 223.158 181.674 212.711 199.354C202.263 216.23 196.236 238.33 194.629 265.654H240.436V398.253H144Z" fill="url(#paint0_linear_416_1013)"/>
<path d="M1174.54 224.253V122.995C1174.54 76.3848 1164.5 37.8104 1144.41 7.27241C1123.51 -23.2656 1093.38 -43.3564 1054 -53V-10.8094C1078.11 -4.38029 1095.39 7.67419 1105.83 25.3541C1116.28 42.2304 1122.31 64.3303 1123.92 91.6537H1078.11V224.253H1174.54ZM1315.36 224.253V122.995C1315.36 76.3848 1305.32 37.8104 1285.23 7.27241C1264.33 -23.2656 1234.2 -43.3564 1194.82 -53V-10.8094C1218.93 -4.38029 1236.2 7.67419 1246.65 25.3541C1257.1 42.2304 1263.13 64.3303 1264.73 91.6537H1218.93V224.253H1315.36Z" fill="url(#paint1_linear_416_1013)"/>
</g>
<defs>
<linearGradient id="paint0_linear_416_1013" x1="160.498" y1="382.929" x2="404.621" y2="117.578" gradientUnits="userSpaceOnUse">
<stop stop-color="#E8F1FF"/>
<stop offset="1" stop-color="#F7FAFF"/>
</linearGradient>
<linearGradient id="paint1_linear_416_1013" x1="1298.86" y1="208.929" x2="1054.74" y2="-56.4224" gradientUnits="userSpaceOnUse">
<stop stop-color="#E8F1FF"/>
<stop offset="1" stop-color="#F7FAFF"/>
</linearGradient>
<clipPath id="clip0_416_1013">
<rect width="1440" height="880" fill="white"/>
</clipPath>
</defs>
</svg>
