<svg width="1440" height="1024" viewBox="0 0 1440 1024" fill="none" xmlns="http://www.w3.org/2000/svg">
<g clip-path="url(#clip0_416_1053)">
<rect width="1440" height="1024" fill="white"/>
<g clip-path="url(#clip1_416_1053)">
<path d="M1047.91 -103.611C1049.13 -97.6499 1051.01 -91.9783 1051.94 -86.0807C1052.62 -81.7865 1053.37 -77.4922 1053.74 -73.1696C1053.95 -70.7329 1054.76 -69.6311 1057.25 -69.3344C1068.93 -67.943 1080.05 -64.6164 1090.35 -58.8742C1107.3 -49.424 1120 -35.7077 1130.35 -19.4276C1142.22 -0.767212 1147.7 20.3934 1154.77 40.9184C1165.46 71.953 1175.43 103.242 1187.42 133.796C1192.84 147.604 1198.73 161.172 1201.74 175.786C1203.37 183.654 1203.89 191.614 1204.32 199.595C1205.52 221.907 1202.03 243.477 1193.34 264.059C1185.08 283.616 1172.98 300.51 1157.06 314.686C1131.58 337.365 1101.61 349.824 1068.03 353.723C1038.44 357.163 1009.64 353.765 981.874 342.45C957.04 332.329 936.056 317.123 919.55 295.955C910.001 283.715 902.535 270.302 897.641 255.498C884.468 215.628 887.555 176.852 904.746 138.747C910.933 125.038 915.503 110.63 920.391 96.3909C928.407 73.0266 936.6 49.7188 944.362 26.2698C948.918 12.5112 953.424 -1.2263 960.558 -13.9114C972.31 -34.8036 987.941 -51.8254 1010.03 -62.0313C1019.05 -66.1914 1028.64 -68.6776 1038.59 -69.4686C1041.02 -69.6593 1041.94 -69.9701 1041.05 -72.7247C1036.17 -87.8323 1029.05 -101.648 1017.76 -112.969C1010.99 -119.757 1003.17 -125.202 994.297 -129.031C988.364 -131.587 984.367 -135.86 983.583 -142.408C982.82 -148.75 985.447 -153.709 990.999 -156.873C996.134 -159.79 1001.38 -159.585 1006.42 -156.548C1016.87 -150.248 1025.18 -141.638 1032.43 -131.962C1037.25 -125.52 1037.16 -125.428 1042.86 -131.248C1056.92 -145.622 1073.54 -155.164 1093.64 -158.187C1108.23 -160.383 1122.36 -157.982 1135.95 -153.08C1161.98 -143.7 1184.53 -128.487 1205.2 -110.307C1207.4 -108.371 1207.53 -107.347 1204.91 -105.744C1179.69 -90.2973 1153.05 -78.375 1123.5 -74.4268C1096.96 -70.8883 1073.71 -78.4174 1054.33 -97.1766C1053.23 -98.2432 1052.09 -99.2673 1051.01 -100.348C1049.95 -101.407 1048.94 -102.516 1047.91 -103.611ZM1112.83 209.045C1112.88 201.467 1111.77 192.843 1109.21 184.487C1102.28 161.822 1090.79 141.961 1071.76 127.341C1055.96 115.207 1042.74 113.497 1025.58 125.413C1014.37 133.196 1005.75 143.338 998.641 154.865C985.49 176.216 978.25 198.98 982.523 224.336C986.14 245.773 998.133 260.414 1018.71 267.738C1032.17 272.527 1046.07 273.403 1060.11 271.475C1075.71 269.335 1089.65 263.592 1099.95 251.077C1109.71 239.225 1112.84 225.205 1112.83 209.045Z" fill="url(#paint0_linear_416_1053)"/>
</g>
<g clip-path="url(#clip2_416_1053)">
<path d="M359.234 124.298C359.973 127.881 361.098 131.291 361.659 134.836C362.066 137.418 362.521 139.999 362.741 142.598C362.869 144.063 363.357 144.725 364.852 144.904C371.875 145.74 378.558 147.74 384.749 151.192C394.943 156.873 402.573 165.119 408.798 174.906C415.931 186.124 419.23 198.845 423.481 211.184C429.905 229.841 435.9 248.651 443.106 267.019C446.363 275.32 449.904 283.477 451.717 292.262C452.693 296.992 453.008 301.777 453.267 306.575C453.988 319.988 451.891 332.956 446.664 345.329C441.696 357.086 434.427 367.242 424.852 375.764C409.537 389.398 391.521 396.888 371.331 399.232C353.545 401.3 336.229 399.257 319.538 392.455C304.609 386.371 291.994 377.229 282.071 364.504C276.331 357.145 271.843 349.082 268.9 340.182C260.981 316.214 262.837 292.903 273.172 269.996C276.891 261.754 279.638 253.092 282.576 244.532C287.396 230.486 292.321 216.475 296.987 202.378C299.726 194.106 302.435 185.848 306.724 178.222C313.789 165.662 323.185 155.429 336.467 149.294C341.885 146.793 347.655 145.298 353.634 144.823C355.094 144.708 355.646 144.521 355.111 142.865C352.182 133.783 347.902 125.478 341.112 118.672C337.04 114.591 332.34 111.318 327.007 109.016C323.44 107.479 321.037 104.91 320.566 100.974C320.107 97.1613 321.687 94.1806 325.024 92.2784C328.111 90.5248 331.266 90.6479 334.297 92.4737C340.577 96.2611 345.57 101.437 349.931 107.254C352.831 111.126 352.776 111.182 356.198 107.683C364.656 99.0423 374.643 93.3059 386.727 91.4886C395.499 90.1681 403.992 91.6117 412.165 94.5585C427.812 100.197 441.369 109.343 453.797 120.272C455.118 121.436 455.194 122.051 453.623 123.015C438.461 132.301 422.445 139.469 404.679 141.842C388.723 143.969 374.749 139.443 363.098 128.166C362.436 127.525 361.752 126.909 361.102 126.259C360.466 125.622 359.858 124.956 359.234 124.298ZM398.264 312.256C398.298 307.7 397.627 302.516 396.09 297.493C391.924 283.867 385.016 271.928 373.573 263.138C364.075 255.844 356.126 254.816 345.813 261.979C339.074 266.658 333.89 272.756 329.618 279.685C321.712 292.521 317.36 306.206 319.929 321.449C322.103 334.336 329.312 343.138 341.685 347.541C349.774 350.42 358.13 350.946 366.571 349.787C375.951 348.5 384.328 345.048 390.523 337.524C396.391 330.4 398.272 321.971 398.264 312.256Z" fill="url(#paint1_linear_416_1053)"/>
</g>
<g clip-path="url(#clip3_416_1053)">
<path d="M1295.33 674.736C1295.94 677.721 1296.88 680.561 1297.35 683.515C1297.69 685.665 1298.07 687.815 1298.25 689.98C1298.36 691.2 1298.76 691.752 1300.01 691.9C1305.86 692.597 1311.42 694.263 1316.58 697.138C1325.07 701.871 1331.43 708.739 1336.61 716.892C1342.56 726.236 1345.3 736.833 1348.84 747.111C1354.2 762.652 1359.19 778.32 1365.19 793.62C1367.9 800.535 1370.85 807.329 1372.36 814.647C1373.18 818.587 1373.44 822.573 1373.66 826.57C1374.26 837.742 1372.51 848.544 1368.16 858.85C1364.02 868.644 1357.96 877.104 1349.99 884.203C1337.23 895.559 1322.22 901.798 1305.4 903.751C1290.59 905.473 1276.17 903.772 1262.26 898.106C1249.83 893.038 1239.32 885.423 1231.05 874.823C1226.27 868.693 1222.53 861.977 1220.08 854.564C1213.49 834.598 1215.03 815.181 1223.64 796.1C1226.74 789.235 1229.03 782.019 1231.47 774.889C1235.49 763.189 1239.59 751.518 1243.48 739.775C1245.76 732.885 1248.02 726.006 1251.59 719.654C1257.47 709.192 1265.3 700.668 1276.36 695.558C1280.88 693.474 1285.68 692.229 1290.66 691.833C1291.88 691.738 1292.34 691.582 1291.89 690.203C1289.45 682.637 1285.89 675.719 1280.23 670.05C1276.84 666.651 1272.93 663.924 1268.48 662.007C1265.51 660.727 1263.51 658.587 1263.12 655.308C1262.74 652.132 1264.05 649.649 1266.83 648.065C1269.4 646.604 1272.03 646.707 1274.56 648.227C1279.79 651.382 1283.95 655.694 1287.58 660.539C1289.99 663.765 1289.95 663.811 1292.8 660.896C1299.84 653.699 1308.16 648.921 1318.23 647.407C1325.54 646.307 1332.61 647.509 1339.42 649.964C1352.45 654.661 1363.74 662.279 1374.1 671.383C1375.2 672.352 1375.26 672.865 1373.95 673.668C1361.32 681.403 1347.98 687.373 1333.18 689.35C1319.89 691.122 1308.25 687.352 1298.55 677.958C1297.99 677.424 1297.43 676.911 1296.88 676.37C1296.35 675.84 1295.85 675.284 1295.33 674.736ZM1327.84 831.302C1327.87 827.507 1327.31 823.188 1326.03 819.004C1322.56 807.654 1316.8 797.709 1307.27 790.388C1299.36 784.311 1292.74 783.455 1284.15 789.422C1278.53 793.32 1274.22 798.399 1270.66 804.171C1264.07 814.863 1260.45 826.262 1262.59 838.959C1264.4 849.693 1270.4 857.025 1280.71 860.693C1287.45 863.091 1294.41 863.53 1301.44 862.564C1309.25 861.492 1316.23 858.617 1321.39 852.35C1326.28 846.415 1327.85 839.394 1327.84 831.302Z" fill="url(#paint2_linear_416_1053)"/>
</g>
<g clip-path="url(#clip4_416_1053)">
<path d="M511.328 860.736C511.943 863.721 512.881 866.561 513.347 869.515C513.687 871.665 514.065 873.815 514.249 875.98C514.355 877.2 514.762 877.752 516.007 877.9C521.857 878.597 527.424 880.263 532.581 883.138C541.073 887.871 547.429 894.739 552.614 902.892C558.555 912.236 561.304 922.833 564.844 933.111C570.195 948.652 575.189 964.32 581.191 979.62C583.904 986.535 586.854 993.329 588.364 1000.65C589.178 1004.59 589.439 1008.57 589.655 1012.57C590.256 1023.74 588.509 1034.54 584.155 1044.85C580.017 1054.64 573.962 1063.1 565.986 1070.2C553.229 1081.56 538.222 1087.8 521.404 1089.75C506.589 1091.47 492.165 1089.77 478.262 1084.11C465.826 1079.04 455.318 1071.42 447.053 1060.82C442.271 1054.69 438.532 1047.98 436.081 1040.56C429.485 1020.6 431.031 1001.18 439.639 982.1C442.738 975.235 445.026 968.019 447.474 960.889C451.488 949.189 455.591 937.518 459.478 925.775C461.759 918.885 464.015 912.006 467.588 905.654C473.473 895.192 481.3 886.668 492.363 881.558C496.876 879.474 501.683 878.229 506.663 877.833C507.879 877.738 508.339 877.582 507.894 876.203C505.453 868.637 501.888 861.719 496.233 856.05C492.841 852.651 488.926 849.924 484.483 848.007C481.512 846.727 479.51 844.587 479.118 841.308C478.736 838.132 480.052 835.649 482.832 834.065C485.403 832.604 488.031 832.707 490.556 834.227C495.787 837.382 499.946 841.694 503.579 846.539C505.994 849.765 505.948 849.811 508.799 846.896C515.844 839.699 524.163 834.921 534.229 833.407C541.536 832.307 548.61 833.509 555.418 835.964C568.452 840.661 579.745 848.279 590.097 857.383C591.197 858.352 591.261 858.865 589.952 859.668C577.322 867.403 563.981 873.373 549.183 875.35C535.891 877.122 524.252 873.352 514.546 863.958C513.995 863.424 513.425 862.911 512.884 862.37C512.354 861.84 511.848 861.284 511.328 860.736ZM543.839 1017.3C543.867 1013.51 543.308 1009.19 542.028 1005C538.558 993.654 532.804 983.709 523.272 976.388C515.36 970.311 508.739 969.455 500.148 975.422C494.535 979.32 490.216 984.399 486.658 990.171C480.073 1000.86 476.447 1012.26 478.587 1024.96C480.398 1035.69 486.404 1043.03 496.71 1046.69C503.448 1049.09 510.408 1049.53 517.44 1048.56C525.253 1047.49 532.231 1044.62 537.391 1038.35C542.279 1032.41 543.846 1025.39 543.839 1017.3Z" fill="url(#paint3_linear_416_1053)"/>
</g>
<g opacity="0.04" clip-path="url(#clip5_416_1053)">
<path d="M607.543 286.405C608.284 290.001 609.413 293.421 609.975 296.978C610.384 299.568 610.84 302.158 611.061 304.765C611.189 306.235 611.679 306.899 613.178 307.078C620.224 307.917 626.929 309.924 633.139 313.387C643.367 319.086 651.022 327.359 657.267 337.178C664.423 348.432 667.733 361.194 671.997 373.573C678.442 392.29 684.457 411.161 691.686 429.589C694.953 437.917 698.506 446.1 700.324 454.913C701.304 459.658 701.619 464.459 701.879 469.273C702.603 482.729 700.499 495.739 695.255 508.152C690.271 519.947 682.979 530.136 673.373 538.686C658.008 552.364 639.934 559.878 619.679 562.229C601.834 564.304 584.463 562.255 567.718 555.431C552.741 549.326 540.085 540.155 530.13 527.389C524.371 520.007 519.868 511.917 516.916 502.989C508.972 478.942 510.833 455.556 521.201 432.575C524.933 424.307 527.689 415.617 530.637 407.029C535.472 392.938 540.413 378.881 545.094 364.738C547.842 356.44 550.56 348.155 554.862 340.504C561.95 327.904 571.377 317.638 584.702 311.483C590.137 308.974 595.926 307.474 601.924 306.997C603.389 306.882 603.943 306.695 603.406 305.033C600.467 295.922 596.173 287.59 589.362 280.761C585.277 276.668 580.561 273.383 575.211 271.074C571.633 269.532 569.222 266.955 568.749 263.007C568.289 259.181 569.873 256.191 573.222 254.283C576.319 252.523 579.484 252.647 582.525 254.478C588.825 258.278 593.835 263.471 598.209 269.307C601.119 273.192 601.063 273.247 604.497 269.737C612.982 261.068 623.001 255.313 635.125 253.49C643.925 252.165 652.445 253.614 660.645 256.57C676.342 262.227 689.943 271.403 702.412 282.367C703.737 283.534 703.813 284.152 702.237 285.119C687.025 294.435 670.958 301.626 653.135 304.007C637.127 306.141 623.108 301.6 611.419 290.286C610.754 289.643 610.069 289.025 609.417 288.373C608.778 287.734 608.169 287.066 607.543 286.405ZM646.698 474.972C646.732 470.402 646.059 465.2 644.517 460.161C640.338 446.492 633.408 434.513 621.928 425.695C612.399 418.377 604.424 417.346 594.077 424.532C587.317 429.227 582.116 435.344 577.831 442.296C569.899 455.173 565.533 468.902 568.11 484.195C570.291 497.123 577.524 505.954 589.937 510.371C598.052 513.259 606.435 513.787 614.903 512.624C624.313 511.334 632.718 507.87 638.933 500.322C644.82 493.174 646.707 484.719 646.698 474.972Z" fill="#BDD1F5"/>
</g>
</g>
<defs>
<linearGradient id="paint0_linear_416_1053" x1="906.862" y1="326.595" x2="1312.91" y2="75.8811" gradientUnits="userSpaceOnUse">
<stop stop-color="#F0F6FF"/>
<stop offset="1" stop-color="#FCFDFF"/>
</linearGradient>
<linearGradient id="paint1_linear_416_1053" x1="274.444" y1="382.923" x2="518.545" y2="232.202" gradientUnits="userSpaceOnUse">
<stop stop-color="#F0F6FF"/>
<stop offset="1" stop-color="#FCFDFF"/>
</linearGradient>
<linearGradient id="paint2_linear_416_1053" x1="1224.7" y1="890.166" x2="1428.03" y2="764.619" gradientUnits="userSpaceOnUse">
<stop stop-color="#F0F6FF"/>
<stop offset="1" stop-color="#FCFDFF"/>
</linearGradient>
<linearGradient id="paint3_linear_416_1053" x1="440.699" y1="1076.17" x2="644.03" y2="950.619" gradientUnits="userSpaceOnUse">
<stop stop-color="#F0F6FF"/>
<stop offset="1" stop-color="#FCFDFF"/>
</linearGradient>
<clipPath id="clip0_416_1053">
<rect width="1440" height="1024" fill="white"/>
</clipPath>
<clipPath id="clip1_416_1053">
<rect width="317.374" height="514" fill="white" transform="translate(889.49 -159)"/>
</clipPath>
<clipPath id="clip2_416_1053">
<rect width="190.795" height="309" fill="white" transform="translate(264 91)"/>
</clipPath>
<clipPath id="clip3_416_1053">
<rect width="158.928" height="257.391" fill="white" transform="translate(1216 647)"/>
</clipPath>
<clipPath id="clip4_416_1053">
<rect width="158.928" height="257.391" fill="white" transform="translate(432 833)"/>
</clipPath>
<clipPath id="clip5_416_1053">
<rect width="191.412" height="310" fill="white" transform="translate(512 253)"/>
</clipPath>
</defs>
</svg>
