<svg width="64" height="64" viewBox="0 0 64 64" fill="none" xmlns="http://www.w3.org/2000/svg">
<rect width="64" height="64" rx="12" fill="#F1F6FF"/>
<path d="M45.3334 19.6667H18.6667C18.12 19.6667 17.6667 19.2133 17.6667 18.6667C17.6667 18.12 18.12 17.6667 18.6667 17.6667H45.3334C45.88 17.6667 46.3334 18.12 46.3334 18.6667C46.3334 19.2133 45.88 19.6667 45.3334 19.6667Z" fill="url(#paint0_linear_416_884)"/>
<path d="M38.2266 45.7867C38.0533 46.1333 37.6933 46.3333 37.3333 46.3333C37.1866 46.3333 37.0266 46.2933 36.8933 46.2267L32 43.7867L27.1066 46.2267C26.9733 46.2933 26.8133 46.3333 26.6666 46.3333C26.3066 46.3333 25.9466 46.1333 25.7733 45.7867C25.52 45.28 25.72 44.68 26.2266 44.44L31 42.0533V38.6667H33V42.0533L37.7733 44.44C38.28 44.68 38.48 45.28 38.2266 45.7867Z" fill="url(#paint1_linear_416_884)"/>
<path d="M20 18.6667V34.8C20 37.3333 21.3333 38.6667 23.8667 38.6667H40.1333C42.6667 38.6667 44 37.3333 44 34.8V18.6667H20ZM38.64 27.44L34.44 30.9467C34.0533 31.2667 33.56 31.4 33.0933 31.32C32.6133 31.24 32.2 30.9467 31.9467 30.52L30.5467 28.1867L26.64 31.44C26.4533 31.6 26.2267 31.6667 26 31.6667C25.72 31.6667 25.4267 31.5467 25.2267 31.3067C24.8667 30.88 24.9333 30.2533 25.36 29.8933L29.56 26.3867C29.9467 26.0667 30.44 25.9333 30.9067 26.0133C31.3867 26.0933 31.8 26.3867 32.0533 26.8133L33.4533 29.1467L37.36 25.8933C37.7867 25.5333 38.4133 25.6 38.7733 26.0267C39.12 26.4533 39.0667 27.08 38.64 27.44Z" fill="url(#paint2_linear_416_884)"/>
<defs>
<linearGradient id="paint0_linear_416_884" x1="45.8164" y1="17.6667" x2="44.5131" y2="24.6658" gradientUnits="userSpaceOnUse">
<stop stop-color="#2878FF"/>
<stop offset="1" stop-color="#2C65C8"/>
</linearGradient>
<linearGradient id="paint1_linear_416_884" x1="38.1077" y1="38.6667" x2="25.6816" y2="46.3622" gradientUnits="userSpaceOnUse">
<stop stop-color="#2878FF"/>
<stop offset="1" stop-color="#2C65C8"/>
</linearGradient>
<linearGradient id="paint2_linear_416_884" x1="43.5672" y1="18.6667" x2="16.4828" y2="30.8438" gradientUnits="userSpaceOnUse">
<stop stop-color="#2878FF"/>
<stop offset="1" stop-color="#2C65C8"/>
</linearGradient>
</defs>
</svg>
