<svg width="64" height="64" viewBox="0 0 64 64" fill="none" xmlns="http://www.w3.org/2000/svg">
<rect width="64" height="64" rx="12" fill="#F1F6FF"/>
<path d="M41.4934 35.92L41.92 36.7867C42.1334 37.2133 42.68 37.6133 43.1334 37.6933L43.7067 37.7867C45.4534 38.08 45.8534 39.36 44.6134 40.6133L44.08 41.1467C43.72 41.5067 43.5334 42.2 43.64 42.7067L43.7067 43.0267C44.1867 45.1333 43.0667 45.9467 41.24 44.84L40.8534 44.6C40.3867 44.32 39.6134 44.32 39.1467 44.6L38.76 44.84C36.92 45.9467 35.8134 45.1333 36.2934 43.0267L36.36 42.7067C36.4667 42.2133 36.28 41.5067 35.92 41.1467L35.3867 40.6133C34.1467 39.3467 34.5467 38.08 36.2934 37.7867L36.8667 37.6933C37.3334 37.6133 37.8667 37.2133 38.08 36.7867L38.5067 35.92C39.3334 34.2533 40.6667 34.2533 41.4934 35.92Z" fill="url(#paint0_linear_416_879)"/>
<path d="M37.5867 18.6667H26.4134C21.56 18.6667 18.6667 21.56 18.6667 26.4133V37.5867C18.6667 42.44 21.56 45.3333 26.4134 45.3333H33.4534C33.92 45.3333 34.2534 44.8533 34.2 44.3867C34.1467 43.88 34.1734 43.28 34.3334 42.5867C34.36 42.4933 34.3334 42.3867 34.2534 42.3067L33.96 42.0133C32.8267 40.8667 32.4134 39.48 32.8134 38.2133C33.2267 36.96 34.3734 36.08 35.96 35.8133L36.36 35.7467L36.72 35.0267C37.4534 33.5333 38.6534 32.6667 40 32.6667C41.3467 32.6667 42.5467 33.5333 43.28 35.0267L43.48 35.44C43.5734 35.64 43.76 35.7733 43.9734 35.8133C44.0934 35.84 44.2134 35.8667 44.3334 35.8933C44.8 36.0133 45.3334 35.64 45.3334 35.1467V26.4133C45.3334 21.56 42.44 18.6667 37.5867 18.6667ZM37.68 27.9467L34.6 31.92C34.2134 32.4133 33.6667 32.7333 33.04 32.8C32.4267 32.88 31.8 32.7067 31.32 32.32L28.88 30.4267C28.7867 30.3467 28.68 30.3467 28.6267 30.36C28.5734 30.36 28.48 30.3867 28.4 30.4933L25.2267 34.6133C25.0267 34.8667 24.7334 35 24.4267 35C24.2134 35 24 34.9333 23.8134 34.7867C23.3734 34.4533 23.2934 33.8267 23.6267 33.3867L26.8 29.2667C27.1867 28.7733 27.7334 28.4533 28.36 28.3733C28.9867 28.2933 29.6 28.4667 30.0934 28.8533L32.5334 30.7733C32.6267 30.8533 32.72 30.84 32.7867 30.84C32.84 30.84 32.9334 30.8133 33.0134 30.7067L36.0934 26.7333C36.4267 26.2933 37.0534 26.2133 37.4934 26.56C37.9467 26.8933 38.0134 27.52 37.68 27.9467Z" fill="url(#paint1_linear_416_879)"/>
<defs>
<linearGradient id="paint0_linear_416_879" x1="45.1409" y1="34.67" x2="32.4522" y2="39.4249" gradientUnits="userSpaceOnUse">
<stop stop-color="#2878FF"/>
<stop offset="1" stop-color="#2C65C8"/>
</linearGradient>
<linearGradient id="paint1_linear_416_879" x1="44.8525" y1="18.6667" x2="13.1288" y2="30.5525" gradientUnits="userSpaceOnUse">
<stop stop-color="#2878FF"/>
<stop offset="1" stop-color="#2C65C8"/>
</linearGradient>
</defs>
</svg>
