<svg width="64" height="64" viewBox="0 0 64 64" fill="none" xmlns="http://www.w3.org/2000/svg">
<rect width="64" height="64" rx="12" fill="#F1F6FF"/>
<path d="M32 18.6667C24.64 18.6667 18.6667 24.64 18.6667 32C18.6667 39.36 24.64 45.3333 32 45.3333C39.36 45.3333 45.3334 39.36 45.3334 32C45.3334 24.64 39.36 18.6667 32 18.6667ZM32 27.6667C31.4534 27.6667 31 27.2133 31 26.6667C31 26.12 31.4534 25.6667 32 25.6667C35.4934 25.6667 38.3334 28.5067 38.3334 32C38.3334 35.4933 35.4934 38.3333 32 38.3333C31.4534 38.3333 31 37.88 31 37.3333C31 36.7867 31.4534 36.3333 32 36.3333C34.3867 36.3333 36.3334 34.3867 36.3334 32C36.3334 29.6133 34.3867 27.6667 32 27.6667ZM32 42.3333C26.3067 42.3333 21.6667 37.6933 21.6667 32C21.6667 31.4533 22.12 31 22.6667 31C23.2134 31 23.6667 31.4533 23.6667 32C23.6667 36.6 27.4 40.3333 32 40.3333C36.6 40.3333 40.3334 36.6 40.3334 32C40.3334 27.4 36.6 23.6667 32 23.6667C31.4534 23.6667 31 23.2133 31 22.6667C31 22.12 31.4534 21.6667 32 21.6667C37.6934 21.6667 42.3334 26.3067 42.3334 32C42.3334 37.6933 37.6934 42.3333 32 42.3333Z" fill="url(#paint0_linear_416_889)"/>
<defs>
<linearGradient id="paint0_linear_416_889" x1="44.8525" y1="18.6667" x2="13.1288" y2="30.5525" gradientUnits="userSpaceOnUse">
<stop stop-color="#2878FF"/>
<stop offset="1" stop-color="#2C65C8"/>
</linearGradient>
</defs>
</svg>
