<svg width="1440" height="880" viewBox="0 0 1440 880" fill="none" xmlns="http://www.w3.org/2000/svg">
<g clip-path="url(#clip0_416_964)">
<rect width="1440" height="880" fill="white"/>
<path d="M636.419 476.239C608.182 476.239 582.531 470.871 559.465 460.133C536.398 449.395 516.911 435.078 501.003 417.181C485.095 398.887 473.761 378.804 467 356.93L509.951 340.824C520.291 371.049 536.398 394.115 558.271 410.023C580.145 425.533 606.194 433.288 636.419 433.288C655.508 433.288 672.212 430.305 686.529 424.34C701.243 417.977 712.578 409.227 720.532 398.092C728.486 386.956 732.463 374.031 732.463 359.317C732.463 337.443 726.497 320.541 714.566 308.61C702.635 296.679 685.534 287.532 663.263 281.169L583.326 257.307C551.908 248.16 527.649 232.849 510.548 211.373C493.845 189.898 485.493 165.439 485.493 137.998C485.493 114.534 491.26 93.8538 502.793 75.9574C514.326 57.6634 530.035 43.3463 549.92 33.0062C570.202 22.6661 593.07 17.496 618.523 17.496C645.168 17.496 669.03 22.4672 690.108 32.4096C711.584 41.9544 729.679 54.6807 744.394 70.5885C759.108 86.4964 769.647 104.194 776.011 123.681L734.252 140.384C724.708 114.136 709.794 94.2515 689.511 80.7298C669.627 67.2081 646.162 60.4472 619.119 60.4472C602.018 60.4472 586.906 63.43 573.782 69.3955C561.055 75.3609 551.113 83.9114 543.954 95.0469C536.796 106.182 533.217 119.306 533.217 134.419C533.217 152.713 538.983 169.217 550.516 183.932C562.05 198.249 579.747 208.987 603.609 216.146L674.001 237.025C708.999 247.365 735.445 262.278 753.342 281.766C771.238 301.253 780.186 325.711 780.186 355.141C780.186 379.003 774.022 400.08 761.693 418.375C749.763 436.271 732.86 450.389 710.987 460.729C689.511 471.069 664.655 476.239 636.419 476.239ZM610.767 528.735V-35H652.526V528.735H610.767Z" fill="url(#paint0_linear_416_964)"/>
<path d="M1078.67 172.667C1062.89 172.667 1048.56 169.667 1035.67 163.667C1022.78 157.667 1011.89 149.667 1003 139.667C994.111 129.444 987.778 118.222 984 106L1008 97C1013.78 113.889 1022.78 126.778 1035 135.667C1047.22 144.333 1061.78 148.667 1078.67 148.667C1089.33 148.667 1098.67 147 1106.67 143.667C1114.89 140.111 1121.22 135.222 1125.67 129C1130.11 122.778 1132.33 115.556 1132.33 107.333C1132.33 95.1111 1129 85.6667 1122.33 79C1115.67 72.3333 1106.11 67.2222 1093.67 63.6667L1049 50.3333C1031.44 45.2222 1017.89 36.6667 1008.33 24.6667C999 12.6667 994.333 -0.999992 994.333 -16.3333C994.333 -29.4444 997.556 -41 1004 -51C1010.44 -61.2222 1019.22 -69.2222 1030.33 -75C1041.67 -80.7778 1054.44 -83.6667 1068.67 -83.6667C1083.56 -83.6667 1096.89 -80.8889 1108.67 -75.3333C1120.67 -70 1130.78 -62.8889 1139 -54C1147.22 -45.1111 1153.11 -35.2222 1156.67 -24.3333L1133.33 -15C1128 -29.6667 1119.67 -40.7778 1108.33 -48.3333C1097.22 -55.8889 1084.11 -59.6667 1069 -59.6667C1059.44 -59.6667 1051 -58 1043.67 -54.6667C1036.56 -51.3333 1031 -46.5556 1027 -40.3333C1023 -34.1111 1021 -26.7778 1021 -18.3333C1021 -8.11111 1024.22 1.11111 1030.67 9.33334C1037.11 17.3333 1047 23.3333 1060.33 27.3333L1099.67 39C1119.22 44.7778 1134 53.1111 1144 64C1154 74.8889 1159 88.5556 1159 105C1159 118.333 1155.56 130.111 1148.67 140.333C1142 150.333 1132.56 158.222 1120.33 164C1108.33 169.778 1094.44 172.667 1078.67 172.667ZM1064.33 202V-113H1087.67V202H1064.33Z" fill="url(#paint1_linear_416_964)"/>
<path d="M252.667 160.667C236.889 160.667 222.556 157.667 209.667 151.667C196.778 145.667 185.889 137.667 177 127.667C168.111 117.444 161.778 106.222 158 94L182 85C187.778 101.889 196.778 114.778 209 123.667C221.222 132.333 235.778 136.667 252.667 136.667C263.333 136.667 272.667 135 280.667 131.667C288.889 128.111 295.222 123.222 299.667 117C304.111 110.778 306.333 103.556 306.333 95.3334C306.333 83.1111 303 73.6667 296.333 67C289.667 60.3333 280.111 55.2222 267.667 51.6667L223 38.3333C205.444 33.2222 191.889 24.6667 182.333 12.6667C173 0.666672 168.333 -13 168.333 -28.3333C168.333 -41.4444 171.556 -53 178 -63C184.444 -73.2222 193.222 -81.2222 204.333 -87C215.667 -92.7778 228.444 -95.6667 242.667 -95.6667C257.556 -95.6667 270.889 -92.8889 282.667 -87.3333C294.667 -82 304.778 -74.8889 313 -66C321.222 -57.1111 327.111 -47.2222 330.667 -36.3333L307.333 -27C302 -41.6667 293.667 -52.7778 282.333 -60.3333C271.222 -67.8889 258.111 -71.6667 243 -71.6667C233.444 -71.6667 225 -70 217.667 -66.6667C210.556 -63.3333 205 -58.5556 201 -52.3333C197 -46.1111 195 -38.7778 195 -30.3333C195 -20.1111 198.222 -10.8889 204.667 -2.66666C211.111 5.33334 221 11.3333 234.333 15.3333L273.667 27C293.222 32.7778 308 41.1111 318 52C328 62.8889 333 76.5556 333 93C333 106.333 329.556 118.111 322.667 128.333C316 138.333 306.556 146.222 294.333 152C282.333 157.778 268.444 160.667 252.667 160.667ZM238.333 190V-125H261.667V190H238.333Z" fill="url(#paint2_linear_416_964)"/>
</g>
<defs>
<linearGradient id="paint0_linear_416_964" x1="484.145" y1="497.578" x2="907.06" y2="262.625" gradientUnits="userSpaceOnUse">
<stop stop-color="#F0F6FF"/>
<stop offset="1" stop-color="#FCFDFF"/>
</linearGradient>
<linearGradient id="paint1_linear_416_964" x1="993.58" y1="184.59" x2="1229.89" y2="53.3047" gradientUnits="userSpaceOnUse">
<stop stop-color="#F0F6FF"/>
<stop offset="1" stop-color="#FCFDFF"/>
</linearGradient>
<linearGradient id="paint2_linear_416_964" x1="167.58" y1="172.59" x2="403.894" y2="41.3047" gradientUnits="userSpaceOnUse">
<stop stop-color="#F0F6FF"/>
<stop offset="1" stop-color="#FCFDFF"/>
</linearGradient>
<clipPath id="clip0_416_964">
<rect width="1440" height="880" fill="white"/>
</clipPath>
</defs>
</svg>
